<svg width="100%" viewBox="0 0 680 680" xmlns="http://www.w3.org/2000/svg" style="background:#0d1117;font-family:Arial,sans-serif;">
<defs>
<marker id="arrow" viewBox="0 0 10 10" refX="8" refY="5" markerWidth="6" markerHeight="6" orient="auto-start-reverse">
<path d="M2 1L8 5L2 9" fill="none" stroke="#4a5568" stroke-width="1.5" stroke-linecap="round" stroke-linejoin="round"/>
</marker>
<marker id="arrow-blue" viewBox="0 0 10 10" refX="8" refY="5" markerWidth="6" markerHeight="6" orient="auto-start-reverse">
<path d="M2 1L8 5L2 9" fill="none" stroke="#3b82f6" stroke-width="1.5" stroke-linecap="round" stroke-linejoin="round"/>
</marker>
<marker id="arrow-green" viewBox="0 0 10 10" refX="8" refY="5" markerWidth="6" markerHeight="6" orient="auto-start-reverse">
<path d="M2 1L8 5L2 9" fill="none" stroke="#48bb78" stroke-width="1.5" stroke-linecap="round" stroke-linejoin="round"/>
</marker>
</defs>

<!-- Title -->
<text x="340" y="28" text-anchor="middle" font-size="14" font-weight="600" fill="#e2e8f0">Plataforma CEEAIV Veracruz — Arquitectura del sistema</text>
<text x="340" y="44" text-anchor="middle" font-size="11" fill="#4a5568">Comisión Ejecutiva Estatal de Atención Integral a Víctimas</text>

<!-- USERS ROW -->
<rect x="35" y="60" width="120" height="52" rx="8" fill="#1e2a3a" stroke="#4a5568" stroke-width="0.8"/>
<text x="95" y="83" text-anchor="middle" font-size="13" font-weight="600" fill="#cbd5e0">Administrador</text>
<text x="95" y="101" text-anchor="middle" font-size="11" fill="#718096">Acceso total</text>

<rect x="175" y="60" width="130" height="52" rx="8" fill="#1e2a3a" stroke="#4a5568" stroke-width="0.8"/>
<text x="240" y="83" text-anchor="middle" font-size="13" font-weight="600" fill="#cbd5e0">Operativo por área</text>
<text x="240" y="101" text-anchor="middle" font-size="11" fill="#718096">Acceso por etapa del flujo</text>

<!-- Arrows users down -->
<line x1="95" y1="112" x2="95" y2="152" stroke="#4a5568" stroke-width="1" marker-end="url(#arrow)"/>
<line x1="240" y1="112" x2="220" y2="152" stroke="#4a5568" stroke-width="1" marker-end="url(#arrow)"/>

<!-- SERVER CONTAINER -->
<rect x="25" y="152" width="460" height="390" rx="16" fill="none" stroke="#2d3748" stroke-width="1"/>
<text x="44" y="172" font-size="11" fill="#4a5568">Ubuntu Server 22.04 LTS — Apache 2.4 — /var/www/html/ceeaiv_veracruz</text>

<!-- FRONTEND -->
<rect x="45" y="182" width="185" height="80" rx="8" fill="#0d2a4a" stroke="#3b82f6" stroke-width="0.8"/>
<text x="137" y="202" text-anchor="middle" font-size="13" font-weight="600" fill="#90cdf4">Vue.js 3 + Tailwind CSS</text>
<text x="137" y="218" text-anchor="middle" font-size="11" fill="#63b3ed">Inertia.js · Axios · Ziggy</text>
<text x="137" y="234" text-anchor="middle" font-size="11" fill="#63b3ed">Sweetalert2 · Modo oscuro</text>
<text x="137" y="250" text-anchor="middle" font-size="10" fill="#4a90d9">SPA — interfaces encadenadas por flujo</text>

<!-- BACKEND -->
<rect x="250" y="182" width="210" height="80" rx="8" fill="#1a0d4a" stroke="#7c3aed" stroke-width="0.8"/>
<text x="355" y="202" text-anchor="middle" font-size="13" font-weight="600" fill="#c4b5fd">Laravel 10.x + PHP 8.2</text>
<text x="355" y="218" text-anchor="middle" font-size="11" fill="#a78bfa">Fortify · Spatie · Ziggy</text>
<text x="355" y="234" text-anchor="middle" font-size="11" fill="#a78bfa">PDF · Word · SMTP</text>
<text x="355" y="250" text-anchor="middle" font-size="10" fill="#9f7aea">MVC + flujo operativo encadenado</text>

<!-- Bidirectional arrows -->
<line x1="230" y1="210" x2="248" y2="210" stroke="#3b82f6" stroke-width="1" marker-end="url(#arrow-blue)"/>
<line x1="248" y1="222" x2="230" y2="222" stroke="#3b82f6" stroke-width="1" marker-end="url(#arrow-blue)"/>
<text x="239" y="204" text-anchor="middle" font-size="9" fill="#4a5568">JSON</text>

<!-- Arrow down to flow -->
<line x1="250" y1="262" x2="250" y2="295" stroke="#4a5568" stroke-width="1" marker-end="url(#arrow)"/>

<!-- FLOW OPERATIVO - header -->
<rect x="45" y="298" width="420" height="28" rx="6" fill="#1a1a2e" stroke="#4a5568" stroke-width="0.5"/>
<text x="255" y="316" text-anchor="middle" font-size="12" font-weight="600" fill="#a0aec0">Flujo operativo encadenado — prellenado automático entre etapas</text>

<!-- FLOW STEPS -->
<rect x="50" y="336" width="115" height="44" rx="6" fill="#0d2a1a" stroke="#48bb78" stroke-width="0.8"/>
<text x="108" y="354" text-anchor="middle" font-size="11" font-weight="600" fill="#9ae6b4">Captura Inicial</text>
<text x="108" y="370" text-anchor="middle" font-size="10" fill="#68d391">Registro víctima</text>

<line x1="165" y1="358" x2="178" y2="358" stroke="#48bb78" stroke-width="1" marker-end="url(#arrow-green)"/>
<text x="171" y="352" text-anchor="middle" font-size="8" fill="#4a5568">auto</text>

<rect x="180" y="336" width="115" height="44" rx="6" fill="#0d2a1a" stroke="#48bb78" stroke-width="0.8"/>
<text x="238" y="352" text-anchor="middle" font-size="10" font-weight="600" fill="#9ae6b4">Entrevista Primer</text>
<text x="238" y="366" text-anchor="middle" font-size="10" font-weight="600" fill="#9ae6b4">Contacto</text>
<text x="238" y="376" text-anchor="middle" font-size="9" fill="#68d391">Formato oficial</text>

<line x1="295" y1="358" x2="308" y2="358" stroke="#48bb78" stroke-width="1" marker-end="url(#arrow-green)"/>
<text x="301" y="352" text-anchor="middle" font-size="8" fill="#4a5568">auto</text>

<rect x="310" y="336" width="115" height="44" rx="6" fill="#0d2a1a" stroke="#48bb78" stroke-width="0.8"/>
<text x="368" y="354" text-anchor="middle" font-size="11" font-weight="600" fill="#9ae6b4">REV</text>
<text x="368" y="370" text-anchor="middle" font-size="10" fill="#68d391">Registro Estatal</text>

<!-- Arrow REV down to RENAVI -->
<line x1="368" y1="380" x2="368" y2="408" stroke="#48bb78" stroke-width="1" marker-end="url(#arrow-green)"/>
<text x="382" y="398" font-size="8" fill="#4a5568">folio</text>

<rect x="310" y="410" width="115" height="44" rx="6" fill="#0d3a2a" stroke="#48bb78" stroke-width="0.8"/>
<text x="368" y="428" text-anchor="middle" font-size="11" font-weight="600" fill="#9ae6b4">RENAVI</text>
<text x="368" y="444" text-anchor="middle" font-size="10" fill="#68d391">Registro Nacional</text>

<!-- Arrow to reports -->
<line x1="108" y1="380" x2="108" y2="410" stroke="#4a5568" stroke-width="1" marker-end="url(#arrow)"/>

<rect x="50" y="412" width="230" height="44" rx="6" fill="#2a1a00" stroke="#d97706" stroke-width="0.8"/>
<text x="165" y="430" text-anchor="middle" font-size="11" font-weight="600" fill="#fcd34d">Reportes + Descarga PDF</text>
<text x="165" y="446" text-anchor="middle" font-size="10" fill="#fbbf24">Estadísticas en tiempo real · Carga masiva</text>

<!-- DATABASE -->
<rect x="70" y="478" width="290" height="44" rx="8" fill="#0d1a3a" stroke="#3b82f6" stroke-width="0.8"/>
<text x="215" y="498" text-anchor="middle" font-size="13" font-weight="600" fill="#90cdf4">MySQL 8.x</text>
<text x="215" y="514" text-anchor="middle" font-size="11" fill="#63b3ed">db_ceeaiv — expedientes, etapas, documentos, usuarios</text>

<!-- SECURITY -->
<rect x="70" y="534" width="290" height="36" rx="8" fill="#3a0d0d" stroke="#e53e3e" stroke-width="0.8"/>
<text x="215" y="550" text-anchor="middle" font-size="12" font-weight="600" fill="#feb2b2">Seguridad</text>
<text x="215" y="564" text-anchor="middle" font-size="11" fill="#fc8181">Fortify · Spatie Permissions · SSL</text>

<!-- EXTERNAL API RENAVI -->
<rect x="510" y="340" width="148" height="60" rx="8" fill="#0d3a1a" stroke="#48bb78" stroke-width="0.8"/>
<text x="584" y="362" text-anchor="middle" font-size="12" font-weight="600" fill="#9ae6b4">API RENAVI</text>
<text x="584" y="378" text-anchor="middle" font-size="11" fill="#68d391">Registro Nacional</text>
<text x="584" y="392" text-anchor="middle" font-size="10" fill="#48bb78">de Víctimas (federal)</text>
<line x1="510" y1="370" x2="427" y2="432" stroke="#48bb78" stroke-width="0.8" stroke-dasharray="4 3" marker-end="url(#arrow-green)"/>

<!-- SMTP -->
<rect x="510" y="182" width="148" height="44" rx="8" fill="#1e2a3a" stroke="#4a5568" stroke-width="0.8"/>
<text x="584" y="200" text-anchor="middle" font-size="12" font-weight="600" fill="#cbd5e0">SMTP</text>
<text x="584" y="218" text-anchor="middle" font-size="11" fill="#718096">Notificaciones email</text>
<line x1="510" y1="204" x2="462" y2="220" stroke="#4a5568" stroke-width="0.8" stroke-dasharray="4 3" marker-end="url(#arrow)"/>

<!-- Legend -->
<rect x="25" y="592" width="630" height="50" rx="8" fill="#111827" stroke="#2d3748" stroke-width="0.5"/>
<text x="44" y="612" font-size="11" font-weight="600" fill="#718096">Leyenda:</text>
<line x1="110" y1="609" x2="140" y2="609" stroke="#48bb78" stroke-width="1.5"/>
<text x="146" y="613" font-size="10" fill="#718096">Flujo operativo encadenado</text>
<line x1="300" y1="609" x2="330" y2="609" stroke="#4a5568" stroke-width="1.5" stroke-dasharray="4 3"/>
<text x="336" y="613" font-size="10" fill="#718096">Integración externa</text>
<line x1="450" y1="609" x2="480" y2="609" stroke="#3b82f6" stroke-width="1.5"/>
<text x="486" y="613" font-size="10" fill="#718096">HTTP/JSON</text>
<text x="44" y="633" font-size="10" fill="#4a5568">Stack: Laravel 10.x + PHP 8.2 · Vue.js 3 + Tailwind CSS + Inertia.js · MySQL 8.x · API RENAVI · Apache 2.4 · Ubuntu 22.04</text>
</svg>
